# xmcd
#
# Track frame offsets:
#	150
#	16440
#	31609
#	49226
#	62595
#	80075
#	94521
#	116445
#	133065
#	147687
#	166773
#	182959
#	200622
#	217468
#	234380
#	259950
#
# Disc length: 3474 seconds
#
# Revision: 1
# Processed by: cddbd v1.5.2PL0 Copyright (c) Steve Scherf et al.
# Submitted via: audiograbber 1.83.01
#
DISCID=ed0d9010
DTITLE=Various Artist - SC8986
DYEAR=1900
DGENRE=Karaoke
TTITLE0=Hill, Faith - Sunshine And Summertime
TTITLE1=Cowboy Crush - Hillbilly Nation
TTITLE2=Seger, Bob - Wait For Me
TTITLE3=Ingram, Jack - Love You
TTITLE4=Keith, Toby - Note To Self
TTITLE5=Roberts, Julie - Girl Next Door
TTITLE6=Rascal Flatts - Life Is A Highway
TTITLE7=Big and Rich - 8th Of November (Radio Version)
TTITLE8=Worley, Darryl - Nothin' But A Love Thang
TTITLE9=Larsen, Blaine and Gretchen Wilson - Lips Of A Bottle
TTITLE10=Aldean, Jason - Amarillo Sky
TTITLE11=Rio Grand - Kill Me Now
TTITLE12=Lost Trailers, The - Call Me Crazy
TTITLE13=Heartland - I Loved Her First
TTITLE14=Carolina Rain - Get Outta My Way
TTITLE15=Data - Data Track
EXTD=
EXTT0=
EXTT1=
EXTT2=
EXTT3=
EXTT4=
EXTT5=
EXTT6=
EXTT7=
EXTT8=
EXTT9=
EXTT10=
EXTT11=
EXTT12=
EXTT13=
EXTT14=
EXTT15=
PLAYORDER=
